HIERARCHY
ROOT Hips
{
	OFFSET 0.000000 0.000000 0.000000
	CHANNELS 6 Xposition Yposition Zposition Zrotation Yrotation Xrotation 
	JOINT LHipJoint
	{
		OFFSET 0.000000 0.000000 0.000000
		CHANNELS 3 Zrotation Yrotation Xrotation
		JOINT LeftUpLeg
		{
			OFFSET 1.363060 -1.794630 0.839290
			CHANNELS 3 Zrotation Yrotation Xrotation
			JOINT LeftLeg
			{
				OFFSET 2.448110 -6.726130 0.000000
				CHANNELS 3 Zrotation Yrotation Xrotation
				JOINT LeftFoot
				{
					OFFSET 2.562200 -7.039590 0.000000
					CHANNELS 3 Zrotation Yrotation Xrotation
					JOINT LeftToeBase
					{
						OFFSET 0.157640 -0.433110 2.322550
						CHANNELS 3 Zrotation Yrotation Xrotation
						End Site
						{
							OFFSET 0.000000 0.000000 0.000000
						}
					}
				}
			}
		}
	}
	JOINT RHipJoint
	{
		OFFSET 0.000000 0.000000 0.000000
		CHANNELS 3 Zrotation Yrotation Xrotation
		JOINT RightUpLeg
		{
			OFFSET -1.305520 -1.794630 0.839290
			CHANNELS 3 Zrotation Yrotation Xrotation
			JOINT RightLeg
			{
				OFFSET -2.542530 -6.985550 0.000000
				CHANNELS 3 Zrotation Yrotation Xrotation
				JOINT RightFoot
				{
					OFFSET -2.568260 -7.056230 0.000000
					CHANNELS 3 Zrotation Yrotation Xrotation
					JOINT RightToeBase
					{
						OFFSET -0.164730 -0.452590 2.363150
						CHANNELS 3 Zrotation Yrotation Xrotation
						End Site
						{
							OFFSET 0.000000 0.000000 0.000000
						}
					}
				}
			}
		}
	}
	JOINT LowerBack
	{
		OFFSET 0.000000 0.000000 0.000000
		CHANNELS 3 Zrotation Yrotation Xrotation
		JOINT Spine
		{
			OFFSET 0.028270 2.035590 -0.193380
			CHANNELS 3 Zrotation Yrotation Xrotation
			JOINT Spine1
			{
				OFFSET 0.056720 2.048850 -0.042750
				CHANNELS 3 Zrotation Yrotation Xrotation
				JOINT Neck
				{
					OFFSET 0.000000 0.000000 0.000000
					CHANNELS 3 Zrotation Yrotation Xrotation
					JOINT Neck1
					{
						OFFSET -0.054170 1.746240 0.172020
						CHANNELS 3 Zrotation Yrotation Xrotation
						JOINT Head
						{
							OFFSET 0.104070 1.761360 -0.123970
							CHANNELS 3 Zrotation Yrotation Xrotation
							End Site
							{
								OFFSET 0.000000 0.000000 0.000000
							}
						}
					}
				}
				JOINT LeftShoulder
				{
					OFFSET 0.000000 0.000000 0.000000
					CHANNELS 3 Zrotation Yrotation Xrotation
					JOINT LeftArm
					{
						OFFSET 3.362410 1.200890 -0.311210
						CHANNELS 3 Zrotation Yrotation Xrotation
						JOINT LeftForeArm
						{
							OFFSET 4.983000 -0.000000 -0.000000
							CHANNELS 3 Zrotation Yrotation Xrotation
							JOINT LeftHand
							{
								OFFSET 3.483560 -0.000000 -0.000000
								CHANNELS 3 Zrotation Yrotation Xrotation
								JOINT LeftFingerBase
								{
									OFFSET 0.000000 0.000000 0.000000
									CHANNELS 3 Zrotation Yrotation Xrotation
									JOINT LeftHandIndex1
									{
										OFFSET 0.715260 -0.000000 -0.000000
										CHANNELS 3 Zrotation Yrotation Xrotation
										End Site
										{
											OFFSET 0.000000 0.000000 0.000000
										}
									}
								}
								JOINT LThumb
								{
									OFFSET 0.000000 0.000000 0.000000
									CHANNELS 3 Zrotation Yrotation Xrotation
									End Site
									{
										OFFSET 0.000000 0.000000 0.000000
									}
								}
							}
						}
					}
				}
				JOINT RightShoulder
				{
					OFFSET 0.000000 0.000000 0.000000
					CHANNELS 3 Zrotation Yrotation Xrotation
					JOINT RightArm
					{
						OFFSET -3.136600 1.374050 -0.404650
						CHANNELS 3 Zrotation Yrotation Xrotation
						JOINT RightForeArm
						{
							OFFSET -5.241900 -0.000000 -0.000000
							CHANNELS 3 Zrotation Yrotation Xrotation
							JOINT RightHand
							{
								OFFSET -3.444170 -0.000000 -0.000000
								CHANNELS 3 Zrotation Yrotation Xrotation
								JOINT RightFingerBase
								{
									OFFSET 0.000000 0.000000 0.000000
									CHANNELS 3 Zrotation Yrotation Xrotation
									JOINT RightHandIndex1
									{
										OFFSET -0.622530 -0.000000 -0.000000
										CHANNELS 3 Zrotation Yrotation Xrotation
										End Site
										{
											OFFSET 0.000000 0.000000 0.000000
										}
									}
								}
								JOINT RThumb
								{
									OFFSET 0.000000 0.000000 0.000000
									CHANNELS 3 Zrotation Yrotation Xrotation
									End Site
									{
										OFFSET 0.000000 0.000000 0.000000
									}
								}
							}
						}
					}
				}
			}
		}
	}
}
MOTION
Frames: 10
Frame Time: 0.008333
-19.139046 11.853376 52.507173 126.841822 -75.823242 -154.332094 -26.646171 -6.849767 -177.209218 -15.699750 20.190427 69.570403 37.743108 -14.818591 -169.954834 -99.165760 -71.739109 -163.374894 1.414300 -7.521400 -21.269500 -9.471426 48.448567 41.758677 -57.190722 44.441216 -43.714574 -18.503324 39.911072 -148.446472 -65.602396 -80.819063 125.239973 -0.366800 -3.890200 10.767800 51.938238 39.411786 69.412031 -172.376310 50.292105 121.141799 29.541979 -46.983517 -88.886622 21.462165 -65.721932 -52.552266 -47.691684 -43.635621 -58.932293 -2.429500 -0.429400 16.881200 120.573751 -54.371392 32.769727 165.977372 62.100002 10.211518 -18.466016 15.370906 149.219494 60.938128 49.644107 -68.556620 -150.938001 80.412795 -171.627100 -7.125000 0.000000 0.000000 10.378700 -27.706000 -175.569400 -51.195914 -8.835258 118.954079 67.577240 81.345473 -83.804550 49.674867 -41.776573 -19.355376 -58.635255 -2.942307 28.463395 -120.822378 -23.374884 46.059200 7.125000 0.000000 0.000000 17.883500 11.418300 165.255400 
-19.134496 11.854813 52.543100 149.691236 80.502575 -141.973034 74.754261 65.834214 -104.544829 -15.839611 -68.316523 -136.520359 -134.714208 -35.680287 109.335040 -11.864006 7.785234 -158.439993 1.400400 -7.486000 -21.163500 170.503870 -25.171026 48.086032 79.461093 -33.112823 -10.325626 -98.509531 33.042836 65.618020 100.914969 81.750727 155.036006 -0.435700 -4.235500 11.740200 124.761894 72.931833 41.595580 -177.417216 -20.700063 -40.316030 146.639711 -88.956059 -167.767499 -60.357689 -31.390340 10.468562 -33.757679 -55.823193 71.186808 -2.412200 -0.458300 16.897300 28.241299 62.348087 -156.814631 -113.351538 -33.674069 -30.306105 -142.975715 60.972437 -41.412550 11.073510 80.549497 -18.117600 -149.145335 63.402438 -171.715300 -7.125000 0.000000 0.000000 10.562000 -27.485400 -175.432600 -156.277945 28.968864 -35.259170 -94.827060 51.317177 9.212132 99.089816 -77.035068 -166.343415 -8.834027 0.165216 50.013507 -67.209242 -0.703133 46.108499 7.125000 0.000000 0.000000 17.811900 11.309200 165.278700 
-19.130903 11.856489 52.577590 -18.805347 -88.896881 29.572216 -73.361007 19.822550 -146.876442 45.292680 -89.154742 46.625495 -24.838094 -27.761846 -59.172444 -124.480489 42.620383 -120.568334 1.383200 -7.441800 -21.031000 -149.312002 18.421356 -89.888821 -25.521054 -8.037406 -64.823165 149.092433 30.405227 99.429401 7.386162 -72.149563 13.687412 -0.511600 -4.584900 12.728300 13.303466 -21.206416 50.498241 85.966101 -75.474800 -153.714598 74.497330 11.161599 -33.153225 -97.423430 -21.382383 106.400267 43.331802 -32.176706 21.349670 -2.379600 -0.486800 16.927400 -161.232751 60.537710 1.780725 -148.324528 -65.558662 -32.172253 -151.831812 -35.276443 172.467243 21.385879 34.083116 -11.013792 32.055875 72.574205 8.150301 -7.125000 0.000000 0.000000 10.779200 -27.337100 -175.297200 -50.932957 51.026738 5.504806 -46.750089 13.645616 152.832495 165.109670 -20.238532 169.488767 -45.072944 -20.756613 29.280159 -107.149525 -32.280928 45.958500 7.125000 0.000000 0.000000 17.755100 11.386000 165.360400 
-19.128747 11.857926 52.610642 -102.532117 -45.225934 59.498516 -16.626945 -36.429148 140.119552 -67.878755 57.792271 -134.845631 40.455220 27.294856 103.066631 -53.762498 -70.875245 62.447526 1.364200 -7.392600 -20.883700 -167.411856 71.994926 -119.368044 30.552734 -56.436224 -17.822960 -116.224566 71.469113 115.217475 -30.596634 -24.161046 -177.453688 -0.593800 -4.933200 13.718100 -127.695191 39.880093 167.174532 -25.051793 7.229512 -16.575141 -64.575795 -72.807872 127.138789 138.084170 -38.069128 -169.097905 -10.271039 -27.339383 13.453124 -2.337300 -0.517500 16.967200 -8.624925 -66.384142 -163.313388 122.874495 -9.630246 -9.936533 132.494884 5.761683 45.025799 -12.033241 89.338696 42.173181 -137.578261 85.382075 -172.011600 -7.125000 0.000000 0.000000 11.009700 -27.247900 -175.169600 -50.033292 -57.323565 60.446296 -36.282035 27.853819 -81.392150 150.273991 -61.727733 -178.623325 -18.221749 23.096063 37.897411 -86.593366 -9.408380 45.612800 7.125000 0.000000 0.000000 17.699100 11.633100 165.506700 
-19.128029 11.858885 52.643215 -112.336093 47.041815 -166.954464 -100.940538 21.185535 -105.677757 83.840619 -29.112604 -107.467226 -162.832025 89.621642 75.780487 -113.167528 37.046738 -84.426160 1.343200 -7.337800 -20.720100 -174.917606 -19.961853 -90.744954 175.393920 -67.311523 127.911328 -85.975010 73.023962 -141.671566 -30.495042 -64.107548 -72.143620 -0.680300 -5.273600 14.690600 -26.627765 -9.624456 14.928268 150.005545 7.057795 127.330947 32.144362 -51.563867 146.369203 113.101744 -43.659895 -58.244790 -165.967788 53.797733 88.605156 -2.286600 -0.550000 17.014900 157.013285 -31.512753 -170.855914 -54.102537 -36.196661 1.638075 29.487945 -58.198218 -7.525618 2.714964 65.345369 10.940651 33.363848 87.049399 7.819300 -7.125000 0.000000 0.000000 11.226300 -27.236100 -175.067900 -89.188329 -44.808453 52.039539 -88.432600 -13.346528 -93.418657 89.435653 45.711684 -11.219155 -17.550491 4.789161 22.513717 -83.600769 -28.260862 45.049500 7.125000 0.000000 0.000000 17.656200 12.082100 165.718700 
-19.128747 11.859603 52.675549 77.445033 -71.617894 -106.085519 72.062733 -85.488336 -8.099559 98.382146 -46.138201 -29.010813 -77.069453 67.608137 111.529561 -149.708463 7.804599 54.485999 1.320600 -7.278200 -20.542300 -127.608561 51.542838 -95.325615 124.175869 -43.411090 -170.282328 -23.459015 -12.632686 110.496414 27.054310 40.799731 97.137855 -0.772400 -5.611600 15.661400 95.799091 54.629382 49.950026 108.901145 73.742554 171.347955 -120.286968 83.998786 122.800142 -20.191576 7.821577 132.538300 -114.312731 -13.435100 -36.992444 -2.230800 -0.586600 17.064000 115.284317 40.968670 11.340089 41.733887 27.226283 -149.957344 48.168709 19.481551 167.724802 24.480114 71.574983 -3.411645 -140.727481 81.405220 -172.332300 -7.125000 0.000000 0.000000 11.426500 -27.196200 -174.965600 101.245214 -83.082272 -167.803525 -23.909470 -33.953067 138.201005 -40.991144 -11.030019 165.890544 -45.036885 29.398775 29.375017 -117.061595 -20.050395 44.883400 7.125000 0.000000 0.000000 17.578500 12.154700 165.816200 
-19.130903 11.859843 52.707883 114.392652 -16.936581 -85.373287 -72.041320 -77.557327 165.579759 -158.501775 -76.002904 155.810863 19.168147 -11.274892 -39.164616 -30.931636 -43.296153 135.414916 1.298600 -7.219700 -20.367900 98.766678 -20.325357 146.086474 -33.713299 -81.056177 -143.109607 -47.825205 1.186544 116.153255 150.627429 -63.342772 -154.297121 -0.867900 -5.940200 16.611000 -45.523267 -4.817869 69.419143 77.837158 -33.875519 -136.267962 -139.406915 -78.940696 35.073533 35.014438 48.029681 139.987220 -30.585558 -78.071710 -28.782739 -2.172100 -0.627000 17.109700 25.811865 60.403922 23.960853 154.512159 -49.131457 -175.820142 -163.448928 -28.073415 -155.914386 34.453292 89.022995 34.563983 71.774359 83.879956 7.559700 -7.125000 0.000000 0.000000 11.582000 -27.114200 -174.871600 -2.191625 83.719885 -107.294968 -35.943469 -63.158883 -101.213888 35.313022 -17.528330 179.587687 -41.608174 49.209242 26.531757 -133.205653 -22.527034 44.664100 7.125000 0.000000 0.000000 17.503300 12.276500 165.930000 
-19.133777 11.859843 52.739978 105.725691 75.787991 -14.496041 179.620238 -73.548128 -164.309352 38.229304 45.746756 -13.324873 -75.103020 -15.275297 -4.158397 84.740318 -24.408980 -141.405874 1.276300 -7.159800 -20.189600 -98.675905 47.958282 98.900157 59.437156 62.775642 164.733704 63.493695 -9.739628 126.455468 85.511646 -47.951534 -149.521121 -0.967900 -6.263700 17.551400 -105.392933 89.728275 54.344132 117.928829 -68.946700 -74.462198 -81.333059 -41.980218 127.579456 118.387864 -70.647314 -18.363529 -1.169768 -58.412848 -8.638306 -2.119800 -0.674700 17.149800 76.866679 11.884721 -166.900336 -113.345537 80.598639 -37.029103 13.244099 12.240362 -173.022642 81.566407 29.877062 -42.409037 -121.211284 58.553102 -172.514400 -7.125000 0.000000 0.000000 11.709900 -26.966300 -174.771100 -50.696629 -33.064433 167.704096 -106.253298 65.532973 18.835558 -6.609374 22.610044 -168.699695 -36.360673 63.361073 42.586194 -132.801153 -3.142669 44.665400 7.125000 0.000000 0.000000 17.410400 12.189100 165.979200 
-19.137370 11.860082 52.770875 84.253884 -69.704063 -78.074813 -92.617456 -40.405011 -122.108384 -174.644633 -76.383612 -161.369588 -57.097905 -8.644385 151.593015 53.905277 2.920498 65.898754 1.256400 -7.106000 -20.029600 39.909240 58.918730 64.499178 144.206037 -14.667810 -53.136181 -9.575464 -28.869571 -99.618745 -63.766851 -62.153720 87.854009 -1.073600 -6.586600 18.496400 10.499317 -64.805402 -23.215110 -84.960875 87.094180 41.674204 85.405419 -17.233517 -171.010204 89.166610 -62.712847 -41.276678 -45.441196 -7.699695 -9.046547 -2.075000 -0.730100 17.184500 75.453327 26.519192 -42.478928 -162.321329 57.609814 32.037478 20.750017 -83.189450 -2.041014 76.702941 65.304797 27.735676 90.842009 60.506012 7.442600 -7.125000 0.000000 0.000000 11.803600 -26.793500 -174.678500 -1.700599 -63.344812 86.033888 92.696569 -8.712499 167.377616 -15.661733 -39.364575 -179.318280 -19.669081 25.444951 41.628764 -84.483008 -0.333115 44.599800 7.125000 0.000000 0.000000 17.318800 12.162100 166.050300 
-19.141441 11.860082 52.801053 88.089190 -56.502540 -23.227360 -38.110389 72.854446 -15.678719 -96.276129 -1.868276 -75.717215 -70.109132 -63.900889 -94.239264 -121.564614 18.581971 57.111428 1.239100 -7.058500 -19.888700 -50.884624 -7.969953 14.479074 85.682206 49.573255 -86.352985 14.993631 -56.755425 162.501205 -33.847821 -26.706713 79.709485 -1.182200 -6.900400 19.420500 85.371020 9.144163 -3.084124 77.200526 78.414169 -93.735220 -161.327894 -58.881948 -109.249935 -42.125962 22.142556 175.606708 40.288493 -54.781209 27.026903 -2.042900 -0.792700 17.214800 77.541363 -0.635131 48.198090 38.586398 -34.499733 152.709681 -64.361396 -5.654966 71.370059 79.360377 -39.834308 16.586394 97.791139 62.960598 7.428197 -7.125000 0.000000 0.000000 11.864200 -26.612300 -174.598400 17.850635 -78.938421 123.663961 1.097451 -4.548900 -59.042168 47.229562 -24.456992 -18.831823 -37.995354 37.254487 25.594712 -117.380122 -16.706858 44.436700 7.125000 0.000000 0.000000 17.231100 12.223600 166.151400 
